<svg width="143" height="32" viewBox="0 0 143 32" fill="none" xmlns="http://www.w3.org/2000/svg">
<g clip-path="url(#clip0_2233_1893)">
<path d="M112.056 9.5535C111.425 9.29884 110.933 8.71763 110.933 7.81435C110.933 6.91856 111.425 6.34484 112.056 6.09468C112.3 5.99731 112.564 5.94788 112.826 5.94788C113.088 5.94788 113.352 5.99731 113.595 6.09468C114.227 6.34484 114.719 6.91856 114.719 7.81435C114.719 8.71913 114.227 9.29884 113.596 9.5535C113.352 9.65087 113.088 9.7003 112.826 9.7003C112.562 9.7003 112.299 9.65087 112.056 9.5535Z" fill="#2A2C60"/>
<path d="M46.1814 9.0232L40.4187 9.04118V16.573H46.1814C47.9715 16.573 49.1129 15.5993 49.6102 14.3515C49.8065 13.8647 49.9023 13.3344 49.9023 12.8041C49.9023 12.2738 49.805 11.7435 49.6102 11.2537C49.1099 10.0014 47.9655 9.0232 46.1814 9.0232ZM52.705 15.5813C51.7538 17.8597 49.5803 19.6453 46.1829 19.6648L40.4187 19.6663V25.6297H37.0752V5.94786H37.1935C38.7649 5.94786 40.2254 5.94187 41.6875 5.93438C43.2364 5.92839 44.7838 5.9209 46.1814 5.9209C49.5593 5.9209 51.7314 7.68401 52.6901 9.94745C53.0661 10.8343 53.2563 11.7974 53.2593 12.7621C53.2608 13.7268 53.0765 14.6915 52.705 15.5813Z" fill="#2A2C60"/>
<path d="M64.0312 12.1C64.7293 12.4685 65.3285 12.9794 65.7584 13.61L65.8318 11.7181H68.8367V25.6297H65.8902L65.7674 23.6839C65.3329 24.352 64.7203 24.8703 64.0357 25.2448C63.1189 25.7466 62.0704 25.9908 61.1461 25.9908H61.0817C59.0804 25.9908 57.3203 25.3421 56.056 24.1093C54.7932 22.8765 54.0262 21.0639 54.0098 18.7346V18.6597C54.0098 16.4202 54.7513 14.6541 55.9706 13.4272C57.2768 12.109 59.1313 11.4125 61.2015 11.4125C62.2067 11.4125 63.1908 11.6536 64.0312 12.1ZM65.3974 16.8621C64.8191 15.4001 63.4934 14.2571 61.4232 14.2571C60.1979 14.2571 59.0879 14.7005 58.3015 15.5019C57.56 16.2569 57.1031 17.334 57.1031 18.6597C57.1031 19.9989 57.5585 21.0819 58.3 21.8414C59.0864 22.6473 60.1964 23.0922 61.4232 23.0922C63.4934 23.0922 64.8191 21.9492 65.3974 20.4857C65.6236 19.915 65.7359 19.2948 65.7359 18.6747C65.7359 18.0545 65.6236 17.4328 65.3974 16.8621Z" fill="#2A2C60"/>
<path d="M79.1351 18.3106L81.8839 11.718H85.3322L76.6035 31.9826H73.1852L76.0658 25.3166L70.5532 11.718H74.1394C75.3692 15.0974 76.5916 18.4499 77.7794 21.8428L79.1351 18.3106Z" fill="#2A2C60"/>
<path d="M99.3476 17.9946V25.6297H96.2258V17.9946C96.2258 16.9714 95.9232 16.0367 95.357 15.3776C94.8357 14.7709 94.0912 14.3949 93.1549 14.3949C92.2082 14.3949 91.4308 14.7784 90.884 15.3956C90.2983 16.0547 89.9717 16.9804 89.9717 17.9946V25.6297H86.8784V11.6911H89.765L89.9328 13.27C90.2893 12.7217 90.7642 12.3172 91.2989 12.0311C92.0359 11.6357 92.8838 11.4679 93.6807 11.4679C94.6424 11.4679 95.6131 11.6836 96.431 12.2049C97.0781 12.6183 97.6279 13.2235 97.9979 14.0654C98.5461 13.1471 99.2262 12.5165 99.9887 12.1105C100.81 11.6746 101.722 11.4964 102.67 11.4964C104.569 11.4964 106.037 12.094 107.037 13.1846C108.057 14.2976 108.584 15.9184 108.584 17.9391V25.6297H105.464V17.9391C105.464 16.907 105.2 15.9888 104.67 15.3491C104.189 14.7739 103.486 14.4234 102.558 14.4234C101.608 14.4234 100.822 14.8039 100.267 15.4181C99.6801 16.0697 99.3476 16.9849 99.3476 17.9946Z" fill="#2A2C60"/>
<path d="M114.358 11.7809V25.6297H111.265V11.6626H114.358V11.7809Z" fill="#2A2C60"/>
<path d="M118.989 11.8633V8.09591L122.111 7.76636V11.8633L122.082 14.3335V20.8527C122.082 21.5537 122.236 22.0945 122.551 22.454C122.854 22.7985 123.312 22.9813 123.934 22.9813C124.19 22.9813 124.465 22.9378 124.742 22.8629C125.045 22.782 125.348 22.6622 125.629 22.5229L125.749 22.4615L126.66 25.1324L126.561 25.1758C126.083 25.387 125.632 25.5413 125.177 25.6447C124.72 25.7465 124.26 25.796 123.767 25.796L123.561 25.799C122.146 25.799 121.026 25.387 120.247 24.5916C119.47 23.7977 119.035 22.6263 118.993 21.1043L118.989 20.8527V11.8633Z" fill="#2A2C60"/>
<path d="M137.4 12.1C138.098 12.4685 138.698 12.9794 139.128 13.61L139.201 11.7181H142.206V25.6297H139.259L139.136 23.6839C138.702 24.352 138.089 24.8703 137.405 25.2448C136.488 25.7466 135.439 25.9908 134.515 25.9908H134.451C132.45 25.9908 130.691 25.3421 129.425 24.1093C128.162 22.8765 127.395 21.0639 127.379 18.7346V18.6597C127.379 16.4202 128.12 14.6541 129.34 13.4272C130.646 12.109 132.5 11.4125 134.571 11.4125C135.576 11.4125 136.56 11.6536 137.4 12.1ZM138.766 16.8621C138.188 15.4001 136.863 14.2571 134.792 14.2571C133.567 14.2571 132.457 14.7005 131.671 15.5019C130.929 16.2569 130.472 17.334 130.472 18.6597C130.472 19.9989 130.928 21.0819 131.669 21.8414C132.456 22.6473 133.566 23.0922 134.792 23.0922C136.863 23.0922 138.188 21.9492 138.766 20.4857C138.993 19.915 139.105 19.2948 139.105 18.6747C139.105 18.0545 138.993 17.4328 138.766 16.8621Z" fill="#2A2C60"/>
<path fill-rule="evenodd" clip-rule="evenodd" d="M16.7923 0.017334C18.3112 0.017334 19.7688 0.298953 21.1199 0.814256C14.9003 9.03064 1.79757 11.6506 0 28.9866C0 20.2864 0 8.71756 0 0.017334H16.7923Z" fill="url(#paint0_linear_2233_1893)"/>
<path fill-rule="evenodd" clip-rule="evenodd" d="M20.13 0.484741C24.7932 1.81944 28.3928 5.87295 29.2197 10.8732C29.1463 10.9391 29.0699 11.0035 28.992 11.0694C25.7953 13.7598 19.2626 16.4786 13.9733 18.8184C8.68545 21.1583 4.64242 23.1191 2.90927 24.7909C2.42392 25.2582 2.11983 25.7031 1.93558 26.1196H1.52963V29.878H0.000202446V25.76C-0.0986638 15.1874 10.4336 2.71073 20.13 0.484741Z" fill="url(#paint1_linear_2233_1893)"/>
<path fill-rule="evenodd" clip-rule="evenodd" d="M12.2909 15.7505C17.8633 15.4779 26.0318 13.7208 27.5492 7.0503C27.5897 6.87354 27.6271 6.6818 27.6676 6.48706C28.7671 8.42244 29.4007 10.6724 29.4007 13.0677C29.4007 20.2459 23.7264 26.1195 16.7923 26.1195H8.67776L3.90971 31.9826H0V28.714C0 19.825 3.05736 16.2029 12.2909 15.7505Z" fill="#2A2C60"/>
<path fill-rule="evenodd" clip-rule="evenodd" d="M115.599 11.6626L120.466 17.4927L134.756 7.2301L120.988 12.7891L115.599 11.6626Z" fill="url(#paint2_linear_2233_1893)"/>
</g>
<defs>
<linearGradient id="paint0_linear_2233_1893" x1="1.86821e-09" y1="12.3217" x2="20.8024" y2="12.2453" gradientUnits="userSpaceOnUse">
<stop stop-color="#67B3E4"/>
<stop offset="0.431373" stop-color="#4970A2"/>
<stop offset="1" stop-color="#2A2C60"/>
</linearGradient>
<linearGradient id="paint1_linear_2233_1893" x1="3.78708" y1="11.3705" x2="28.9605" y2="11.3705" gradientUnits="userSpaceOnUse">
<stop stop-color="#67B3E4"/>
<stop offset="0.560784" stop-color="#4970A2"/>
<stop offset="1" stop-color="#2A2C60"/>
</linearGradient>
<linearGradient id="paint2_linear_2233_1893" x1="118.082" y1="11.0305" x2="134.585" y2="11.0305" gradientUnits="userSpaceOnUse">
<stop stop-color="#67B3E4"/>
<stop offset="0.639216" stop-color="#4970A2"/>
<stop offset="1" stop-color="#2A2C60"/>
</linearGradient>
<clipPath id="clip0_2233_1893">
<rect width="142.206" height="32" fill="white"/>
</clipPath>
</defs>
</svg>
